<?xml version="1.0" encoding="iso-8859-1"?>
<!-- Uploaded to: SVG Repo, www.svgrepo.com, Generator: SVG Repo Mixer Tools -->
<svg height="800px" width="800px" version="1.1" id="Layer_1" xmlns="http://www.w3.org/2000/svg" xmlns:xlink="http://www.w3.org/1999/xlink" 
	 viewBox="0 0 503.607 503.607" xml:space="preserve">
<g transform="translate(1 1)">
	<path style="fill:#FFFFFF;" d="M207.997,11.59c0-1.679,0.839-2.518,0.839-4.197h-77.22l52.039,222.426
		c4.197-2.518,8.393-5.036,12.59-6.715L156.797,11.59H207.997z"/>
	<path style="fill:#FD9808;" d="M301.164,7.393c0.839,1.679,0.839,2.518,0.839,4.197h41.967l-39.449,211.515
		c4.197,1.679,8.393,4.197,12.59,6.715L369.99,7.393H301.164z"/>
	<path style="fill:#FCC309;" d="M250.803,208.836c21.823,0,41.967,7.554,59.593,20.984L351.525,7.393H150.082L191.21,229.82
		C208.836,217.229,228.98,208.836,250.803,208.836"/>
	<path style="fill:#FFDD09;" d="M250.803,494.213c-64.63,0-117.508-63.79-117.508-142.689s52.879-142.689,117.508-142.689
		s117.508,63.79,117.508,142.689S315.433,494.213,250.803,494.213"/>
	<path style="fill:#FD9808;" d="M250.803,208.836c64.63,0,117.508,63.79,117.508,142.689s-52.879,142.689-117.508,142.689
		c78.898,0,142.689-63.79,142.689-142.689S329.702,208.836,250.803,208.836"/>
	<path style="fill:#FFFFFF;" d="M133.295,351.525c0-78.898,52.879-142.689,117.508-142.689c-78.898,0-142.689,64.63-142.689,142.689
		s63.79,142.689,142.689,142.689C186.174,494.213,133.295,430.423,133.295,351.525"/>
	<polygon style="fill:#54C9FD;" points="250.803,275.984 267.59,326.344 317.951,326.344 275.984,359.918 292.77,410.279 
		250.803,385.098 208.836,410.279 225.623,359.918 183.656,326.344 234.016,326.344 	"/>
	<path style="fill:#FFDD09;" d="M250.803,208.836c15.108,0,29.377,2.518,42.807,6.715L333.898,7.393h-167.03l41.128,208.157
		C221.426,211.354,235.695,208.836,250.803,208.836"/>
	<g>
		<path style="fill:#110E0E;" d="M250.803,502.607c-83.095,0-151.082-67.148-151.082-151.082s67.987-151.082,151.082-151.082
			s151.082,67.987,151.082,151.082S333.898,502.607,250.803,502.607z M250.803,217.229c-73.862,0-134.295,60.433-134.295,134.295
			S176.941,485.82,250.803,485.82s134.295-60.433,134.295-134.295S324.666,217.229,250.803,217.229z"/>
		<path style="fill:#110E0E;" d="M269.269,467.354c-4.197,0-7.554-2.518-8.393-6.715s2.518-9.233,6.715-10.072
			c11.751-1.679,22.662-5.875,32.734-11.751c4.197-2.518,9.233-0.839,11.751,3.357c2.518,4.197,0.839,9.233-3.357,11.751
			c-11.751,6.715-25.18,11.751-38.61,13.43C270.108,467.354,270.108,467.354,269.269,467.354z M231.498,467.354
			c-0.839,0-0.839,0-1.679,0c-13.43-2.518-26.02-7.554-38.61-14.269c-4.197-2.518-5.036-7.554-3.357-11.751
			c2.518-4.197,7.554-5.036,11.751-3.357c10.072,5.875,20.984,10.072,32.734,11.751c4.197,0.839,7.554,5.036,6.715,10.072
			C239.052,464.836,235.695,467.354,231.498,467.354z M333.898,430.423c-1.679,0-4.197-0.839-5.036-1.679
			c-3.357-3.357-4.197-8.393-0.839-11.751c7.554-9.233,13.43-19.305,17.626-30.216c1.679-4.197,6.715-6.715,10.911-5.036
			c4.197,1.679,6.715,6.715,5.036,10.911c-5.036,12.59-11.751,24.341-20.144,35.252
			C338.934,429.584,336.416,430.423,333.898,430.423z M166.869,430.423c-2.518,0-5.036-0.839-6.715-3.357
			c-9.233-10.911-15.948-22.662-20.144-35.252c-1.679-4.197,0.839-9.233,5.036-10.911c4.197-1.679,9.233,0.839,10.911,5.036
			c4.197,10.911,10.072,20.984,17.626,30.216c3.357,3.357,2.518,9.233-0.839,11.751
			C171.066,429.584,168.548,430.423,166.869,430.423z M359.918,360.757c-5.036,0-8.393-3.357-8.393-8.393l0,0
			c0-11.751-1.679-23.502-5.875-34.413c-1.679-4.197,0.839-9.233,5.036-10.911c4.197-1.679,9.233,0.839,10.911,5.036
			c5.036,12.59,6.715,26.02,6.715,40.289C368.311,356.561,364.954,360.757,359.918,360.757z M141.689,359.918L141.689,359.918
			c-5.036,0-8.393-3.357-8.393-8.393c0-13.43,2.518-27.698,6.715-40.289c1.679-4.197,6.715-6.715,10.911-5.036
			c4.197,1.679,6.715,6.715,5.036,10.911c-4.197,10.911-5.875,22.662-5.875,34.413C150.082,356.561,146.725,359.918,141.689,359.918
			z M334.738,290.252c-2.518,0-5.036-0.839-6.715-3.357c-7.554-9.233-16.787-16.787-26.859-22.662
			c-4.197-2.518-5.036-7.554-3.357-11.751c2.518-4.197,7.554-5.036,11.751-3.357c11.751,6.715,22.662,15.948,31.056,26.02
			c3.357,3.357,2.518,9.233-0.839,11.751C338.095,289.413,336.416,290.252,334.738,290.252z M167.708,290.252
			c-1.679,0-4.197-0.839-5.036-1.679c-3.357-3.357-4.197-8.393-0.839-11.751c9.233-10.911,19.305-19.305,31.056-26.02
			c4.197-2.518,9.233-0.839,11.751,3.357c2.518,4.197,0.839,9.233-3.357,11.751c-10.072,5.875-19.305,13.43-26.859,22.662
			C171.905,288.574,169.387,290.252,167.708,290.252z M270.108,252.482c-0.839,0-0.839,0-1.679,0
			c-11.751-1.679-23.502-1.679-35.252,0c-4.197,0.839-9.233-2.518-10.072-6.715s2.518-9.233,6.715-10.072
			c13.43-2.518,27.698-2.518,41.128,0c4.197,0.839,7.554,5.036,6.715,10.072C277.662,249.964,273.466,252.482,270.108,252.482z"/>
		<path style="fill:#110E0E;" d="M292.77,418.672c-1.679,0-3.357,0-4.197-0.839l-37.77-22.662l-37.77,22.662
			c-3.357,1.679-6.715,1.679-9.233-0.839c-2.518-2.518-4.197-5.875-2.518-9.233l15.108-44.485l-37.77-30.216
			c-2.518-2.518-4.197-5.875-2.518-9.233c0.839-3.357,4.197-5.875,7.554-5.875h44.485l15.108-44.485
			c0.839-3.357,4.197-5.875,7.554-5.875s6.715,2.518,7.554,5.875l15.108,44.485h44.485c3.357,0,6.715,2.518,7.554,5.875
			c0.839,3.357,0,6.715-2.518,9.233l-37.771,30.216l15.108,44.485c0.839,3.357,0,6.715-2.518,9.233
			C296.128,418.672,294.449,418.672,292.77,418.672z M250.803,376.705c1.679,0,3.357,0,4.197,0.839l22.662,13.43l-9.233-28.538
			c-0.839-3.357,0-6.715,2.518-9.233l23.502-18.466H267.59c-3.357,0-6.715-2.518-7.554-5.875l-9.233-26.02l-9.233,26.859
			c-0.839,3.357-4.197,5.036-7.554,5.036h-26.02l23.502,18.466c2.518,2.518,4.197,5.875,2.518,9.233l-9.233,28.538l22.662-13.43
			C247.446,377.544,249.125,376.705,250.803,376.705z"/>
		<path style="fill:#110E0E;" d="M176.941,238.213c-0.839,0-2.518,0-3.357-0.839c-2.518-0.839-4.197-3.357-5.036-5.875
			l-26.02-112.472c-0.839-4.197,1.679-9.233,5.875-10.072c4.197-0.839,9.233,1.679,10.072,5.875l24.341,102.4
			c42.807-21.823,94.007-21.823,136.813,0l47.003-201.443h-230.82l7.554,31.895c0.839,4.197-2.518,9.233-6.715,10.072
			c-4.197,0.839-9.233-1.679-10.072-5.875L116.508,9.911c0-2.518,0-5.036,1.679-7.554C119.866,0.679,122.384-1,124.902-1h251.803
			c2.518,0,5.036,0.839,6.715,3.357c1.679,2.518,1.679,5.036,1.679,7.554l-52.039,222.426c-0.839,2.518-2.518,5.036-5.036,5.875
			c-2.518,0.839-5.036,0.839-7.554-0.839c-41.967-26.02-97.364-26.02-139.331,0C179.459,238.213,178.62,238.213,176.941,238.213z"/>
		<path style="fill:#110E0E;" d="M150.082,82.934c0-5.036-3.357-8.393-8.393-8.393c-5.036,0-8.393,4.197-8.393,8.393
			c0,4.197,3.357,8.393,8.393,8.393C146.725,91.328,150.082,87.97,150.082,82.934"/>
		<path style="fill:#110E0E;" d="M207.997,223.944c-1.679,0-3.357,0-4.197-0.839c-1.679-0.839-3.357-3.357-4.197-5.875
			L158.475,9.072c0-2.518,0-5.036,1.679-6.715C161.833,0.679,164.351-1,166.869-1h167.03c2.518,0,5.036,0.839,6.715,3.357
			c1.679,1.679,2.518,4.197,1.679,6.715l-41.128,208.157c-0.839,2.518-1.679,4.197-4.197,5.875
			c-1.679,0.839-4.197,1.679-6.715,0.839c-26.02-8.393-54.557-8.393-79.738,0C209.675,223.944,208.836,223.944,207.997,223.944z
			 M176.941,15.787l37.77,188.852c23.502-5.875,48.682-5.875,72.184,0l36.931-188.852H176.941z"/>
	</g>
</g>
</svg>